<svg xmlns="http://www.w3.org/2000/svg" width="16" height="16" viewBox="0 0 16 16" fill="none">
<path d="M13.3511 4.98071C13.2 6.88674 13.0489 8.79276 12.88 10.6988C12.8 11.6168 12.7378 12.5349 12.64 13.4529C12.56 14.1786 12.2311 14.7556 11.4222 14.8168C9.36889 14.9742 7.24445 14.8256 5.18222 14.8168C4.45333 14.8168 3.77778 14.7994 3.46667 14.03C3.16445 13.2605 3.25333 12.2201 3.19111 11.407C3.02222 9.26489 2.80889 7.13155 2.64889 4.98946C2.23111 4.98946 1.90222 5.02443 1.77778 4.58727C1.68 4.23754 1.73333 3.66049 1.85778 3.3195C2.16889 2.47141 3.03111 2.51513 3.79556 2.51513C4.30222 2.51513 4.81778 2.51513 5.32445 2.51513C5.82222 2.52387 5.91111 2.52387 6.10667 2.09545C6.44445 1.36976 7.18222 0.880143 8.00889 0.888886C8.8 0.888886 9.50222 1.34353 9.84889 2.03425C10.0533 2.43644 10.0533 2.51513 10.5244 2.52387C11.0667 2.53261 11.6 2.51513 12.1422 2.52387C12.8889 2.52387 13.7778 2.46267 14.1067 3.28453C14.3022 3.75666 14.4533 4.97197 13.6889 4.98071C13.5822 4.98071 13.4667 4.98071 13.3511 4.98071ZM12.5156 4.98946C9.48445 4.98946 6.48889 4.98946 3.47556 4.98946C3.64445 7.28018 3.84889 9.57965 4.04445 11.8704C4.08889 12.4037 4.08889 12.9808 4.18667 13.5054C4.24889 13.8463 4.33778 13.9338 4.69333 13.9862C5.78667 14.1349 7.00445 13.9862 8.10667 13.9862C8.67556 13.9862 9.24445 13.9862 9.81333 13.9862C10.2844 13.9862 10.9511 14.0999 11.4133 13.9775C11.7778 13.8813 11.7778 13.6103 11.8044 13.2868C11.8489 12.7622 11.8933 12.2376 11.9378 11.713C12.1422 9.47473 12.3378 7.22772 12.5156 4.98946ZM13.3778 4.14137C13.44 3.57306 13.3689 3.31076 12.64 3.3195C9.50222 3.33699 6.35556 3.32825 3.21778 3.32825C3.15556 3.32825 3.08445 3.32825 3.02222 3.32825C2.8 3.34573 2.63111 3.49437 2.60445 3.71295C2.58667 3.85284 2.60445 4.00147 2.60445 4.15011C6.20445 4.14137 9.78667 4.14137 13.3778 4.14137ZM9.14667 2.50638C8.96 1.97305 8.48889 1.68452 7.86667 1.71949C7.42222 1.73698 6.96 2.10419 6.86222 2.50638C7.61778 2.50638 8.37333 2.50638 9.14667 2.50638Z" fill="white"/>
<path d="M5.92 9.64444C5.92 10.2844 5.92 10.9333 5.92 11.5733C5.92 11.8844 6.01778 12.5511 5.52 12.56C4.78222 12.5689 5.09334 10.0978 5.09334 9.62667C5.09334 9.12889 4.78222 6.77333 5.46667 6.69333C6.00889 6.63111 5.92889 7.34222 5.92889 7.66222C5.91111 8.32889 5.92 8.98667 5.92 9.64444Z" fill="white"/>
<path d="M10.0711 9.60889C10.0711 8.8 10.0711 7.99111 10.0711 7.17333C10.0711 6.88 10.2222 6.69333 10.4622 6.67555C10.6933 6.66666 10.8978 6.88 10.8978 7.16444C10.8978 8.8 10.8978 10.4356 10.8978 12.0711C10.8978 12.3467 10.7111 12.5511 10.48 12.5511C10.24 12.56 10.0711 12.3556 10.0622 12.0533C10.0711 11.2444 10.0711 10.4267 10.0711 9.60889Z" fill="white"/>
<path d="M7.59111 9.60889C7.59111 9.10222 7.27111 6.57777 8.05333 6.72888C8.54222 6.82666 8.4 7.48444 8.4 7.84C8.4 8.47111 8.4 9.11111 8.4 9.74222C8.4 10.3733 8.4 11.0133 8.4 11.6444C8.4 11.9556 8.48 12.5511 8 12.56C7.26222 12.5689 7.59111 10.1067 7.59111 9.60889Z" fill="white"/>
</svg>