<svg xmlns="http://www.w3.org/2000/svg" width="17" height="17" viewBox="0 0 17 17" fill="none">
  <g clip-path="url(#clip0_13_50)">
    <path d="M8.48937 17C7.07624 17 5.67375 17 4.26062 17C3.315 17 1.87 16.9575 1.87 15.6506C1.87 14.7156 2.52875 13.6 3.07062 12.8775C3.63375 12.1231 4.36687 11.5175 5.19562 11.0606C8.89312 9.05249 13.9719 10.8587 15.0556 15.1087C15.4062 16.4581 14.3756 17 13.1856 17.0106C11.6237 17 10.0619 17 8.48937 17Z" fill="#343434"/>
    <path d="M4.2606 4.21811C4.27123 0.46749 8.98873 -1.42376 11.5919 1.27499C14.1525 3.93124 12.1869 8.49999 8.49998 8.48936C6.15185 8.46811 4.24998 6.55561 4.2606 4.21811Z" fill="#343434"/>
  </g>
  <defs>
    <clipPath id="clip0_13_50">
      <rect width="17" height="17" fill="white"/>
    </clipPath>
  </defs>
</svg>